#!OML:ASF E:\emotionWalksFemale\Project 1\Capture day 1\Session 1\Female1.ASF
:FULLY-SPECIFIED
:DEGREES
1949
root 10.17 15.1938 -19.3887 -2.21332 -2.11485 -5.38257
lowerback 3.67167 0.714581 3.22461
upperback -4.2082 1.34898 3.0341
thorax -6.4486 0.594255 1.2342
lowerneck -7.01417 -8.09031 -8.28313
upperneck 20.6353 -17.2421 29.0927
head 11.53 -6.29591 10.1502
rclavicle -2.29099e-014 3.97569e-015
rhumerus -43.6542 2.62685 -85.097
rradius 33.2561
rwrist 17.4456
rhand -6.05808 -52.2377
rfingers 7.12502
rthumb 19.7765 -81.2516
lclavicle -2.29099e-014 3.97569e-015
lhumerus -44.9062 7.99146 80.4536
lradius 33.2684
lwrist -15.7033
lhand -1.63567 -30.639
lfingers 7.12502
lthumb 24.0228 -2.12237
rfemur 18.529 11.3452 39.4804
rtibia 7.33279
rfoot -11.8765 -21.5428
rtoes 3.60204
lfemur -33.0783 -28.2926 -7.06921
ltibia 28.284
lfoot -27.3514 26.4444
ltoes -3.43735
1950
root 10.1806 15.1915 -19.2956 -2.13267 -2.40892 -5.56476
lowerback 3.58025 0.749914 3.39526
upperback -4.20208 1.40693 3.12258
thorax -6.38865 0.617736 1.22706
lowerneck -7.14302 -8.0885 -8.30458
upperneck 20.5891 -17.2618 29.2112
head 11.5663 -6.29202 10.1977
rclavicle 4.77083e-015 -2.22639e-014
rhumerus -43.5894 2.48921 -84.8694
rradius 32.9467
rwrist 17.7126
rhand -5.2717 -53.2504
rfingers 7.12502
rthumb 20.5323 -82.1846
lclavicle 4.77083e-015 -2.22639e-014
lhumerus -45.2015 8.19665 80.1008
lradius 33.3186
lwrist -15.8814
lhand -1.64465 -30.255
lfingers 7.12502
lthumb 24.0142 -1.73726
rfemur 18.7156 11.2073 39.5455
rtibia 7.53616
rfoot -11.5231 -21.2078
rtoes 2.65916
lfemur -33.384 -29.8734 -6.13557
ltibia 27.9903
lfoot -28.6817 27.9733
ltoes -2.34028
1951
root 10.1925 15.1942 -19.2044 -2.0838 -2.67004 -5.76207
lowerback 3.60781 0.776413 3.62052
upperback -4.19836 1.4624 3.19074
thorax -6.39818 0.636129 1.16726
lowerneck -7.10521 -8.0203 -8.33633
upperneck 20.6513 -17.2132 29.348
head 11.5938 -6.26355 10.2854
rclavicle 5.81445e-015 -3.97569e-015
rhumerus -43.5166 2.37925 -84.7066
rradius 32.589
rwrist 17.6984
rhand -5.59555 -53.1737
rfingers 7.12502
rthumb 20.2211 -82.1412
lclavicle 5.81445e-015 -3.97569e-015
lhumerus -45.292 8.50552 79.5816
lradius 32.9022
lwrist -16.1501
lhand -1.79947 -31.063
lfingers 7.12502
lthumb 23.8657 -2.52575
rfemur 18.8549 11.0317 39.6127
rtibia 7.83161
rfoot -10.9951 -20.7615
rtoes 0.961286
lfemur -33.5829 -31.2349 -5.32518
ltibia 27.7733
lfoot -30.3825 28.7712
ltoes 2.02375
1952
root 10.2041 15.191 -19.1083 -2.08078 -2.84094 -5.80959
lowerback 3.58971 0.801953 3.70805
upperback -4.16496 1.49913 3.1867
thorax -6.35013 0.650701 1.11094
lowerneck -7.40081 -8.04673 -8.26768
upperneck 20.5167 -17.2852 29.5381
head 11.6501 -6.26214 10.3254
rclavicle 1.77912e-014 5.1684e-015
rhumerus -43.4668 2.20899 -84.5781
rradius 32.2015
rwrist 17.674
rhand -6.2801 -52.8293
rfingers 7.12502
rthumb 19.5631 -81.865
lclavicle 1.77912e-014 5.1684e-015
lhumerus -45.1897 9.29777 78.6108
lradius 31.7846
lwrist -17.2441
lhand -2.23722 -33.5076
lfingers 7.12502
lthumb 23.4458 -4.91607
rfemur 18.9813 10.77 39.5058
rtibia 8.28778
rfoot -10.9402 -20.2591
rtoes 0.734111
lfemur -33.5189 -31.7967 -5.16249
ltibia 27.5977
lfoot -31.2158 29.3711
ltoes 4.86758
1953
root 10.2149 15.1859 -19.0078 -2.00626 -3.02862 -5.67273
lowerback 3.37885 0.840029 3.54529
upperback -4.14086 1.52445 3.17242
thorax -6.20559 0.672205 1.18712
lowerneck -7.31696 -8.09658 -8.22589
upperneck 20.4701 -17.3593 29.5459
head 11.63 -6.30244 10.3051
rclavicle 1.47101e-014 -2.42517e-014
rhumerus -43.4874 1.97198 -84.3092
rradius 31.9289
rwrist 17.9995
rhand -6.34369 -52.913
rfingers 7.12502
rthumb 19.5019 -81.955
lclavicle 1.47101e-014 -2.42517e-014
lhumerus -45.5329 9.68717 78.0002
lradius 31.6845
lwrist -17.9583
lhand -2.52146 -34.6686
lfingers 7.12502
lthumb 23.1732 -6.04251
rfemur 19.0423 10.561 39.1902
rtibia 8.80618
rfoot -11.184 -19.7654
rtoes 1.64264
lfemur -33.3641 -31.8606 -5.42883
ltibia 27.4507
lfoot -31.2146 30.1314
ltoes 5.27098
1954
root 10.2275 15.1826 -18.9071 -1.89881 -3.20643 -5.59174
lowerback 3.1679 0.850744 3.43419
upperback -4.11298 1.51998 3.21424
thorax -6.05815 0.677893 1.29576
lowerneck -7.43737 -8.11685 -8.25317
upperneck 20.4285 -17.3789 29.5501
head 11.6491 -6.3069 10.3006
rclavicle -1.64991e-014 -1.86858e-014
rhumerus -43.4706 1.59641 -83.8039
rradius 31.6288
rwrist 18.8985
rhand -6.01999 -52.8114
rfingers 7.12502
rthumb 19.8131 -81.8216
lclavicle -1.64991e-014 -1.86858e-014
lhumerus -45.4552 10.1664 77.571
lradius 31.2321
lwrist -18.4335
lhand -2.72753 -34.5392
lfingers 7.12502
lthumb 22.9754 -5.88837
rfemur 19.0334 10.3521 38.9189
rtibia 9.39582
rfoot -11.3808 -19.2863
rtoes 2.35082
lfemur -33.2002 -32.0053 -5.60508
ltibia 27.3027
lfoot -31.7213 30.4217
ltoes 7.1445
1955
root 10.2393 15.182 -18.8105 -1.83767 -3.35908 -5.68629
lowerback 3.23547 0.849839 3.50675
upperback -4.18191 1.53333 3.26478
thorax -6.17031 0.680922 1.30635
lowerneck -7.20822 -8.01315 -8.30176
upperneck 20.2622 -17.2221 29.7654
head 11.5299 -6.25658 10.4278
rclavicle 1.61016e-014 -1.55052e-014
rhumerus -43.5982 1.20965 -83.3619
rradius 31.2404
rwrist 19.8457
rhand -5.89706 -52.324
rfingers 7.12502
rthumb 19.9313 -81.3219
lclavicle 1.61016e-014 -1.55052e-014
lhumerus -45.7201 10.2916 77.1965
lradius 31.1755
lwrist -18.5974
lhand -2.63309 -33.9913
lfingers 7.12502
lthumb 23.0661 -5.35176
rfemur 19.0418 10.0971 38.8244
rtibia 9.95311
rfoot -11.5435 -18.7426
rtoes 2.16364
lfemur -32.8905 -31.688 -5.8259
ltibia 27.1957
lfoot -32.3171 29.9019
ltoes 10.62
1956
root 10.2484 15.1871 -18.711 -1.81472 -3.4865 -5.78176
lowerback 3.31634 0.847148 3.55885
upperback -4.3074 1.54602 3.29754
thorax -6.35026 0.683053 1.30997
lowerneck -6.95991 -7.97581 -8.33732
upperneck 20.2039 -17.1954 29.9412
head 11.4755 -6.26153 10.5244
rclavicle -5.2181e-015 -1.94809e-014
rhumerus -43.8624 1.13578 -83.2566
rradius 30.9248
rwrist 19.9521
rhand -6.43102 -52.0347
rfingers 7.12502
rthumb 19.418 -81.0851
lclavicle -5.2181e-015 -1.94809e-014
lhumerus -46.2221 10.0962 76.8769
lradius 31.2601
lwrist -18.6119
lhand -2.62246 -33.649
lfingers 7.12502
lthumb 23.0763 -5.01072
rfemur 19.1934 9.80605 38.7352
rtibia 10.2944
rfoot -11.7544 -18.0986
rtoes 1.57383
lfemur -32.4107 -30.7063 -6.40067
ltibia 27.2208
lfoot -31.7732 29.4502
ltoes 11.2828
1957
root 10.2585 15.1867 -18.6045 -1.80621 -3.5621 -5.83759
lowerback 3.17134 0.829473 3.56144
upperback -4.31433 1.51721 3.35859
thorax -6.27591 0.671122 1.37663
lowerneck -7.02575 -7.99697 -8.28183
upperneck 20.3299 -17.2453 29.8212
head 11.5285 -6.27359 10.4598
rclavicle 3.13086e-015 -2.26615e-014
rhumerus -43.9344 1.20733 -83.2069
rradius 30.6739
rwrist 19.5701
rhand -7.73124 -51.5529
rfingers 7.12502
rthumb 18.1674 -80.7245
lclavicle 3.13086e-015 -2.26615e-014
lhumerus -46.2903 10.1648 76.5958
lradius 30.9345
lwrist -18.7097
lhand -2.71137 -33.358
lfingers 7.12502
lthumb 22.9909 -4.70907
rfemur 19.4954 9.63624 38.6932
rtibia 10.4967
rfoot -11.5784 -17.6515
rtoes 1.44671
lfemur -31.8503 -29.5499 -7.17249
ltibia 27.3572
lfoot -30.8195 29.1184
ltoes 10.2356
1958
root 10.2707 15.1818 -18.4981 -1.79894 -3.67636 -5.84216
lowerback 3.06011 0.818909 3.49168
upperback -4.25302 1.49321 3.44102
thorax -6.15078 0.66625 1.50477
lowerneck -7.29666 -8.01952 -8.22936
upperneck 20.568 -17.3154 29.6432
head 11.6678 -6.27433 10.3714
rclavicle -5.26779e-015 2.34566e-014
rhumerus -43.8736 1.12477 -82.9271
rradius 30.4902
rwrist 19.6588
rhand -8.20329 -51.1033
rfingers 7.12502
rthumb 17.7132 -80.3165
lclavicle -5.26779e-015 2.34566e-014
lhumerus -46.3073 10.3048 76.409
lradius 30.8466
lwrist -18.6498
lhand -2.24295 -32.6823
lfingers 7.12502
lthumb 23.4404 -4.09012
rfemur 19.8476 9.32822 38.5429
rtibia 10.5935
rfoot -10.9519 -17.1174
rtoes 1.78286
lfemur -31.2726 -28.3271 -8.02315
ltibia 27.5526
lfoot -30.0765 28.5872
ltoes 9.38646
1959
root 10.2842 15.1823 -18.3917 -1.84275 -3.8087 -5.77756
lowerback 3.05327 0.823114 3.41404
upperback -4.21721 1.49176 3.44
thorax -6.11042 0.669566 1.54709
lowerneck -7.37511 -8.01562 -8.1537
upperneck 20.5091 -17.3229 29.6993
head 11.6663 -6.26514 10.3724
rclavicle 8.44835e-015 -1.94809e-014
rhumerus -43.9174 0.887648 -82.6785
rradius 30.3534
rwrist 20.0102
rhand -7.37293 -51.5897
rfingers 7.12502
rthumb 18.5121 -80.7288
lclavicle 8.44835e-015 -1.94809e-014
lhumerus -46.3898 10.4341 76.0905
lradius 30.8594
lwrist -18.7161
lhand -1.64907 -32.3416
lfingers 7.12502
lthumb 24.0099 -3.82321
rfemur 20.26 9.04082 38.3049
rtibia 10.6517
rfoot -10.3773 -16.6335
rtoes 1.66364
lfemur -30.6454 -27.1062 -8.96888
ltibia 27.7783
lfoot -28.8101 28.26
ltoes 5.83966
1960
root 10.2968 15.1804 -18.2801 -1.94964 -3.79034 -5.70492
lowerback 3.05174 0.820914 3.38907
upperback -4.23248 1.48377 3.36217
thorax -6.12368 0.664534 1.48042
lowerneck -7.24992 -8.0333 -8.06305
upperneck 20.581 -17.4 29.7367
head 11.6844 -6.29543 10.3713
rclavicle -2.41026e-014 1.23246e-014
rhumerus -44.112 0.537011 -82.4802
rradius 30.2554
rwrist 20.4266
rhand -6.41859 -52.3798
rfingers 7.12502
rthumb 19.4299 -81.429
lclavicle -2.41026e-014 1.23246e-014
lhumerus -46.3955 10.4803 75.6972
lradius 30.6073
lwrist -19.0632
lhand -1.56343 -32.5817
lfingers 7.12502
lthumb 24.0921 -4.07423
rfemur 20.6729 8.77955 38.1126
rtibia 10.8949
rfoot -10.2574 -16.2358
rtoes 1.57396
lfemur -29.975 -26.0706 -9.90727
ltibia 27.971
lfoot -27.0074 27.9892
ltoes 1.91081
1961
root 10.3101 15.1774 -18.1643 -1.99827 -3.80373 -5.57595
lowerback 2.93428 0.827258 3.30127
upperback -4.26043 1.47916 3.31971
thorax -6.08605 0.665473 1.48697
lowerneck -6.9603 -8.03264 -8.14097
upperneck 20.5578 -17.4056 29.8275
head 11.6336 -6.32506 10.4359
rclavicle -6.70898e-015 2.42517e-014
rhumerus -44.3029 0.30384 -82.2329
rradius 30.0789
rwrist 20.6122
rhand -6.43766 -52.461
rfingers 7.12502
rthumb 19.4116 -81.5121
lclavicle -6.70898e-015 2.42517e-014
lhumerus -46.476 10.3362 75.5396
lradius 30.4879
lwrist -19.1645
lhand -1.31397 -32.5016
lfingers 7.12502
lthumb 24.3312 -4.02603
rfemur 20.9474 8.49863 37.7861
rtibia 11.2626
rfoot -10.1955 -15.895
rtoes 1.40826
lfemur -29.3912 -25.3981 -10.6986
ltibia 28.1101
lfoot -25.7179 27.4315
ltoes 2.45653
